<?xml version="1.0" encoding="utf-8"?>
<!-- Generator: Adobe Illustrator 24.0.2, SVG Export Plug-In . SVG Version: 6.00 Build 0)  -->
<svg version="1.1" id="Capa_1" xmlns="http://www.w3.org/2000/svg" xmlns:xlink="http://www.w3.org/1999/xlink" x="0px" y="0px"
	 viewBox="0 0 119 27" style="enable-background:new 0 0 119 27;" xml:space="preserve">
<style type="text/css">
	.st0{fill:#FF0000;}
	.st1{fill:#FF2B00;}
	.st2{font-family:'MyriadPro-Regular';}
	.st3{font-size:19.3198px;}
</style>
<title>Group 2</title>
<desc>Created with Sketch.</desc>
<g id="Marshmello_landing-page">
	<g id="Simple_landngpage" transform="translate(-307.000000, -51.000000)">
		<g id="Group-2" transform="translate(307.000000, 50.000000)">
			<path id="_xF104_" class="st0" d="M16.6,18.2l1.3-2.2l5.2,8.9c-1.2,1-2.6,1.8-4.1,2.3c-1.5,0.5-3.1,0.8-4.8,0.8
				c-1.1,0-2.1-0.1-3-0.3L16.6,18.2z M1.1,19h14l-5.3,9c-2.1-0.8-3.9-1.9-5.3-3.5S1.8,21.1,1.1,19z M9.4,14l1.7,3H0.3
				c-0.2-1-0.3-2-0.3-3c0-1.9,0.3-3.8,1-5.5S2.7,5.3,3.8,4L9.4,14z M27.8,12c0.2,1,0.3,2,0.3,3c0,1.9-0.3,3.8-1,5.5
				c-0.7,1.7-1.6,3.2-2.8,4.6l-7.2-13H27.8z M27.1,11h-14l5.3-9c2.1,0.8,3.9,1.9,5.3,3.5C25.2,7.1,26.4,8.9,27.1,11z M10.4,12.9
				L10.2,13L5.1,4.1c1.2-1,2.6-1.8,4.1-2.3S12.3,1,14,1c1.1,0,2.1,0.1,3,0.3L10.4,12.9z"/>
			<text transform="matrix(0.7698 0 0 1 40.2394 23.1709)" class="st1 st2 st3">MedicalCare</text>
		</g>
	</g>
</g>
</svg>
